<svg xmlns="http://www.w3.org/2000/svg" width="640" height="640" viewBox="0 0 640 640">
  <defs>
    <linearGradient id="bg" x1="0" y1="0" x2="0" y2="1">
      <stop offset="0" stop-color="#2b2f38"/>
      <stop offset="1" stop-color="#161920"/>
    </linearGradient>
  </defs>

  <rect width="640" height="640" fill="url(#bg)"/>

  <!-- le gateau, au centre -->
  <g transform="translate(160 90) scale(5)">
    <path d="M32 4 C33 11 38 13.5 38 18 a6 6 0 0 1 -12 0 c0 -4.5 5 -7 6 -14 z" fill="#F5E6A8" transform="translate(-16 0)"/>
    <rect x="13" y="22" width="6" height="12" fill="#C9A24B"/>
    <path d="M-10 36 H42 V54 H-10 Z" fill="#C08B62"/>
    <path d="M-10 30 H42 V39 q-6.5 5.5 -13 0 q-6.5 5.5 -13 0 q-6.5 5.5 -13 0 q-6.5 5.5 -13 0 Z" fill="#F6EFE4"/>
    <rect x="-14" y="54" width="60" height="6" rx="3" fill="#E8E8E8"/>
  </g>

  <text x="320" y="470" text-anchor="middle" font-family="Georgia, 'Times New Roman', serif"
        font-size="54" fill="#F6EFE4">Many Happy Returns</text>
  <text x="320" y="512" text-anchor="middle" font-family="Georgia, 'Times New Roman', serif"
        font-size="26" fill="#B7AE9E">Did anyone remember?</text>

  <line x1="200" y1="548" x2="440" y2="548" stroke="#4a505c" stroke-width="2"/>
  <text x="320" y="584" text-anchor="middle" font-family="Georgia, 'Times New Roman', serif"
        font-size="22" fill="#8b93a1">RimWorld 1.6</text>
</svg>
